<svg xmlns="http://www.w3.org/2000/svg" width="22" height="22" viewBox="0 0 22 22">
    <defs>
        <radialGradient id="a" cx="73.423%" cy="13.579%" r="98.2%" fx="73.423%" fy="13.579%" gradientTransform="matrix(0 .97693 -1 0 .87 -.582)">
            <stop offset="0%" stop-color="#C6D2AE"/>
            <stop offset="100%" stop-color="#879E69"/>
        </radialGradient>
    </defs>
    <g fill="none" fill-rule="evenodd">
        <path fill="url(#a)" d="M21.45 8.064c-.242-.927-1.47-1.437-1.93-2.249-.465-.823-.287-2.165-.94-2.834-.653-.668-1.964-.486-2.769-.962-.793-.47-1.29-1.728-2.197-1.975-.876-.24-1.918.587-2.868.587S8.754-.196 7.878.044C6.972.29 6.474 1.549 5.681 2.019c-.804.476-2.115.294-2.768.962-.654.669-.475 2.01-.94 2.834-.46.812-1.688 1.322-1.93 2.25-.235.896.574 1.963.574 2.935s-.809 2.04-.574 2.936c.242.927 1.47 1.437 1.93 2.249.465.823.287 2.165.94 2.834.653.668 1.964.486 2.768.962.794.47 1.292 1.728 2.198 1.975.875.24 1.918-.588 2.867-.588.95 0 1.993.828 2.868.588.906-.247 1.404-1.505 2.197-1.975.805-.476 2.116-.294 2.77-.962.652-.669.474-2.01.94-2.835.458-.811 1.687-1.321 1.929-2.249.234-.896-.574-1.963-.574-2.935s.808-2.04.574-2.936z"/>
        <text fill="#FFF" font-family="NotoSans-BoldItalic, Noto Sans" font-size="14" font-style="italic" font-weight="bold">
            <tspan x="7" y="16">2</tspan>
        </text>
    </g>
</svg>
