<svg width="29px" height="17px" viewBox="0 0 29 17" version="1.1" xmlns="http://www.w3.org/2000/svg" xmlns:xlink="http://www.w3.org/1999/xlink">
    <!-- Generator: Sketch 47.1 (45422) - http://www.bohemiancoding.com/sketch -->
    <title>linked-website copy</title>
    <desc>Created with Sketch.</desc>
    <defs>
        <rect id="path-1" x="252" y="741" width="1100" height="280"></rect>
        <filter x="-0.7%" y="-2.9%" width="102.9%" height="111.4%" filterUnits="objectBoundingBox" id="filter-2">
            <feOffset dx="16" dy="16" in="SourceAlpha" result="shadowOffsetOuter1"></feOffset>
            <feColorMatrix values="0 0 0 0 0   0 0 0 0 0   0 0 0 0 0  0 0 0 0.2 0" type="matrix" in="shadowOffsetOuter1"></feColorMatrix>
        </filter>
    </defs>
    <g id="invite" stroke="none" stroke-width="1" fill="none" fill-rule="evenodd">
        <g id="0.0.5_초대-기본" transform="translate(-427.000000, -911.000000)">
            <g id="Rectangle-4-Copy">
                <use fill="black" fill-opacity="1" filter="url(#filter-2)" xlink:href="#path-1"></use>
                <use fill="#FFFFFF" fill-rule="evenodd" xlink:href="#path-1"></use>
            </g>
            <rect id="Rectangle-42" stroke="#9B9B9B" stroke-width="2" x="403" y="900" width="138" height="38" rx="3"></rect>
            <g id="linked-website-copy" transform="translate(427.000000, 911.000000)" fill-rule="nonzero" fill="#4A4A4A">
                <path d="M4.84924062,17 C4.44700651,17 4.04232369,16.943987 3.64324714,16.8310751 C2.44827288,16.4924758 1.44958269,15.6820588 0.8310237,14.5492603 L0.619660696,14.1618029 C-0.657345603,11.823021 0.103174574,8.82203183 2.31468889,7.47185926 L11.8425207,1.65481918 C14.0544861,0.305191747 16.8921633,1.10913522 18.1687185,3.44744005 L18.3803393,3.83489747 C19.6573456,6.1736793 18.8968254,9.17494108 16.6853111,10.5250455 L15.8423078,11.0395203 C15.4281523,11.293078 14.899487,11.1426878 14.6604149,10.7047369 C14.4213427,10.2669904 14.5630461,9.70747356 14.9770083,9.454938 L15.8200116,8.94025882 C16.4910891,8.53038256 16.9710378,7.86892475 17.1715749,7.07758761 C17.3719187,6.28625047 17.269137,5.45961559 16.8815307,4.74998112 L16.6701677,4.36252371 C15.8702103,2.89828083 14.0931501,2.39402743 12.7077558,3.23974216 L3.17992397,9.05664595 C1.79478745,9.90208812 1.31864073,11.7819312 2.11834039,13.2467192 L2.32970339,13.6341766 C2.71730964,14.3438111 3.34263482,14.8513353 4.09116916,15.0633943 C4.83905911,15.2759303 5.62097335,15.1670389 6.29205089,14.7569582 L8.42017992,13.4575517 C8.8347865,13.205425 9.36325845,13.3555426 9.60233063,13.7926076 C9.84120948,14.2303541 9.69944162,14.7898709 9.28547944,15.0426791 L7.15735041,16.341813 C6.44374251,16.7773789 5.65164676,17 4.84924062,17 Z" id="Shape"></path>
                <path d="M14.8489798,16 C13.2473238,16 11.6877403,15.121665 10.8311484,13.5523822 L10.6195615,13.1649335 C9.34275962,10.8262047 10.1031581,7.82501099 12.3143184,6.47493716 L13.1571867,5.96047406 C13.5717269,5.7073991 14.1003076,5.85799029 14.3388905,6.29524985 C14.5779244,6.7329864 14.4362436,7.29249058 14.0223477,7.54502041 L13.1794794,8.05968793 C12.5085093,8.46955489 12.0286374,9.13099772 11.8281324,9.92231692 C11.6278207,10.7136361 11.730586,11.5402523 12.1181302,12.2498706 L12.3294593,12.6373193 C13.1290954,14.101529 14.9065155,14.6054984 16.291237,13.7600754 L25.8175437,7.94316715 C27.2024585,7.09747158 27.6787867,5.21794368 26.8789573,3.75318887 L26.6676281,3.36574024 C26.2800839,2.65612186 25.6548589,2.14860913 24.9064443,1.93655493 C24.1593184,1.72497772 23.3770783,1.83359417 22.7059149,2.24298415 L20.5781265,3.54236121 C20.1642306,3.79516361 19.635199,3.64504941 19.3961651,3.20731286 C19.1573244,2.76957631 19.2990696,2.21007213 19.7129655,1.95726974 L21.8407539,0.658165234 C22.911832,0.00380905559 24.1591251,-0.169404878 25.3543591,0.168982374 C26.5491421,0.507574049 27.5476724,1.31797268 28.1661324,2.45074547 L28.3774615,2.8381941 C28.9959215,3.97096689 29.1604103,5.29085434 28.8402595,6.55445749 C28.5201087,7.81785621 27.7538472,8.87410687 26.6827691,9.52798606 L17.1563336,15.3449624 C16.429052,15.7888316 15.6339904,16 14.8489798,16 Z" id="Shape"></path>
            </g>
        </g>
    </g>
</svg>