<?xml version="1.0" encoding="utf-8"?>
<!-- Generator: Adobe Illustrator 22.0.0, SVG Export Plug-In . SVG Version: 6.00 Build 0)  -->
<svg version="1.1" id="레이어_1" xmlns="http://www.w3.org/2000/svg" xmlns:xlink="http://www.w3.org/1999/xlink" x="0px"
	 y="0px" viewBox="0 0 38 42" style="enable-background:new 0 0 38 42;" xml:space="preserve">
<style type="text/css">
	.st0{fill:#FFFFFF;}
</style>
<title>gift_icon</title>
<desc>Created with Sketch.</desc>
<g id="Symbols">
	<g id="top1" transform="translate(-55.000000, -8.000000)">
		<g id="gift_icon">
			<g transform="translate(55.000000, 8.000000)">
				<polygon id="Shape" class="st0" points="2.1,26.4 0,29.7 4.1,29.7 				"/>
				<path id="Shape_1_" class="st0" d="M35.2,20.9c0.5-0.8,0.3-1.5,0.1-2c-0.2-0.4-0.2-0.6-0.1-0.7s0.2-0.2,0.7-0.2
					c0.5,0,1.3-0.1,1.8-0.9c0.5-0.8,0.3-1.5,0.1-2c-0.2-0.4-0.2-0.6-0.1-0.7c0.2-0.3,0.1-0.8-0.2-1c-0.3-0.2-0.8-0.1-1,0.2
					c-0.4,0.6-0.3,1.2-0.2,1.6c0,0.1,0.1,0.2,0.1,0.4c0.2,0.4,0.2,0.6,0.1,0.7c-0.1,0.2-0.2,0.2-0.7,0.2c-0.1,0-0.2,0-0.4,0
					c-0.5,0.1-1,0.2-1.4,0.8c-0.4,0.6-0.3,1.2-0.2,1.6c0,0.1,0.1,0.2,0.1,0.4c0.2,0.4,0.2,0.6,0.1,0.7c-0.1,0.2-0.2,0.2-0.7,0.2
					c-0.1,0-0.2,0-0.4,0c-0.5,0.1-1,0.2-1.4,0.8c-0.2,0.3-0.1,0.8,0.2,1c0.1,0.1,0.3,0.1,0.4,0.1c0.2,0,0.5-0.1,0.6-0.3
					c0.1-0.2,0.2-0.2,0.7-0.2C33.9,21.7,34.7,21.6,35.2,20.9z"/>
				<polygon id="Shape_2_" class="st0" points="36.7,37.1 35.5,38.3 34.3,37.1 33,38.4 34.2,39.5 33,40.7 34.3,42 35.5,40.8 
					36.7,42 38,40.7 36.8,39.5 38,38.4 				"/>
				<polygon id="Shape_3_" class="st0" points="5,37.1 4.1,37.1 3.3,37.1 3.3,38.7 1.7,38.7 1.7,40.4 3.3,40.4 3.3,42 5,42 5,40.4 
					6.6,40.4 6.6,38.7 5,38.7 				"/>
				<polygon id="Shape_4_" class="st0" points="28.3,10.6 27.6,10 26.4,11.2 25.2,10 24.6,10.6 24,11.3 25.1,12.5 24,13.6 
					24.6,14.3 25.2,14.9 26.4,13.7 27.6,14.9 28.9,13.6 27.7,12.5 28.9,11.3 				"/>
				<path id="Shape_5_" class="st0" d="M14.9,12.1c0-0.7-0.6-1.2-1.2-1.2s-1.2,0.6-1.2,1.2c0,0.7,0.6,1.2,1.2,1.2
					S14.9,12.7,14.9,12.1z"/>
				<path id="Shape_6_" class="st0" d="M35.9,27.2c-0.7,0-1.2,0.6-1.2,1.2c0,0.7,0.6,1.2,1.2,1.2c0.7,0,1.2-0.6,1.2-1.2
					S36.6,27.2,35.9,27.2z"/>
				<path id="Shape_7_" class="st0" d="M5,14.1c-1.4,0-2.5,1.1-2.5,2.5C2.5,17.9,3.6,19,5,19c1.4,0,2.5-1.1,2.5-2.5S6.3,14.1,5,14.1
					z M5,17.6c-0.6,0-1.1-0.5-1.1-1.1c0-0.6,0.5-1.1,1.1-1.1C5.6,15.5,6,16,6,16.6C6,17.2,5.6,17.6,5,17.6z"/>
				<path id="Shape_8_" class="st0" d="M28.1,38.4v-8.9h1.2v-5.1h-5.1c0.4-0.2,0.7-0.4,0.9-0.6c1.3-1.3,1.3-3.4,0-4.7
					c-1.3-1.3-3.4-1.3-4.7,0c-0.6,0.6-1,2-1.3,3.2c-0.2-1.1-0.6-2.2-1.1-2.7c-0.6-0.6-1.3-0.9-2.1-0.9c-0.8,0-1.6,0.3-2.1,0.9
					c-1.2,1.2-1.2,3.1,0,4.3c0.2,0.2,0.4,0.3,0.7,0.4h-5v5.1h1.2v8.9h5.8h6L28.1,38.4L28.1,38.4z M26.8,37.1h-4.5v-7.6h4.5
					L26.8,37.1L26.8,37.1z M28,25.7v2.5h-5.7v-2.5H28z M21.4,20.1c0.4-0.4,0.9-0.6,1.4-0.6c0.5,0,1,0.2,1.4,0.6
					c0.8,0.8,0.8,2.1,0,2.8c-0.5,0.5-2.5,1-4.1,1.2C20.4,22.5,20.8,20.6,21.4,20.1z M14.6,20.6c0.3-0.3,0.8-0.5,1.2-0.5
					c0.5,0,0.9,0.2,1.2,0.5c0.4,0.4,0.8,2.1,1.1,3.5c-1.4-0.2-3.1-0.6-3.5-1.1C14,22.4,14,21.3,14.6,20.6z M16.3,37.1h-4.5v-7.6h4.5
					V37.1z M16.3,28.2h-5.7v-2.5h5.7V28.2z M21,37.1h-3.4V25.7H21V37.1z"/>
			</g>
		</g>
	</g>
</g>
</svg>
