<svg xmlns="http://www.w3.org/2000/svg" width="170" height="174" viewBox="0 0 170 174">
    <defs>
        <radialGradient id="a" cx="73.423%" cy="13.579%" r="98.2%" fx="73.423%" fy="13.579%" gradientTransform="matrix(0 .97693 -1 0 .87 -.582)">
            <stop offset="0%" stop-color="#D6B8DC"/>
            <stop offset="100%" stop-color="#9D7AA5"/>
        </radialGradient>
    </defs>
    <g fill="none" fill-rule="evenodd">
        <path fill="url(#a)" d="M168.722 63.434c-1.906-7.296-11.569-11.305-15.178-17.692-3.664-6.479-2.261-17.034-7.398-22.292-5.136-5.258-15.45-3.822-21.78-7.571-6.238-3.696-10.154-13.587-17.282-15.537-6.886-1.884-15.087 4.625-22.556 4.625-7.468 0-15.671-6.509-22.56-4.625-7.125 1.95-11.042 11.842-17.28 15.537-6.33 3.749-16.642 2.314-21.778 7.571-5.137 5.259-3.735 15.815-7.396 22.293C11.903 52.13 2.239 56.139.334 63.436c-1.84 7.05 4.52 15.444 4.52 23.088 0 7.646-6.36 16.04-4.52 23.09 1.905 7.296 11.569 11.305 15.18 17.692 3.66 6.477 2.26 17.034 7.396 22.293 5.136 5.256 15.45 3.82 21.778 7.57 6.24 3.695 10.157 13.587 17.284 15.536 6.887 1.886 15.088-4.625 22.556-4.625 7.469 0 15.671 6.509 22.558 4.625 7.128-1.95 11.044-11.841 17.284-15.536 6.328-3.75 16.641-2.314 21.777-7.572 5.137-5.258 3.733-15.815 7.397-22.293 3.61-6.386 13.272-10.396 15.178-17.692 1.842-7.048-4.52-15.442-4.52-23.088 0-7.644 6.36-16.042 4.52-23.09z"/>
        <path fill="#FFF" d="M84.528 13.402c-39.452 0-71.435 32.737-71.435 73.122s31.983 73.12 71.435 73.12c39.453 0 71.435-32.735 71.435-73.12 0-40.385-31.982-73.122-71.435-73.122z"/>
        <path fill="#D3B7D9" d="M90.088 19.251c-.02 0-.042 0-.061-.002a65.086 65.086 0 0 0-4.9-.228.753.753 0 0 1-.739-.77.753.753 0 0 1 .744-.754h.007c1.667.015 3.353.094 5.01.234.41.034.713.402.68.823a.751.751 0 0 1-.74.697m-14.846.423a.75.75 0 0 1-.736-.656.758.758 0 0 1 .634-.86 66.69 66.69 0 0 1 4.987-.52c.418-.033.764.292.79.712a.756.756 0 0 1-.694.81c-1.63.108-3.271.278-4.877.507a.728.728 0 0 1-.104.007m24.633 1.16a.714.714 0 0 1-.171-.02 64.142 64.142 0 0 0-4.811-.967.759.759 0 0 1-.62-.87.747.747 0 0 1 .852-.635c1.644.265 3.3.598 4.92.989.4.097.648.507.555.916a.75.75 0 0 1-.725.588m-34.32.983a.747.747 0 0 1-.713-.545.764.764 0 0 1 .502-.946 65.117 65.117 0 0 1 4.859-1.272c.4-.091.798.173.885.583a.762.762 0 0 1-.57.905c-1.592.353-3.191.771-4.751 1.245a.724.724 0 0 1-.211.03m43.768 2.074a.723.723 0 0 1-.277-.053 64.604 64.604 0 0 0-4.617-1.693.764.764 0 0 1-.484-.956.743.743 0 0 1 .934-.496 66.735 66.735 0 0 1 4.721 1.73c.381.156.567.6.414.99a.744.744 0 0 1-.69.478m-53.039 1.531a.743.743 0 0 1-.673-.438.772.772 0 0 1 .358-1.014 66.377 66.377 0 0 1 4.622-2.001.74.74 0 0 1 .96.44.768.768 0 0 1-.431.984 64.586 64.586 0 0 0-4.521 1.958.722.722 0 0 1-.315.071m61.93 2.933a.715.715 0 0 1-.375-.106 66.933 66.933 0 0 0-4.317-2.375.77.77 0 0 1-.341-1.018.733.733 0 0 1 .996-.348 67.455 67.455 0 0 1 4.414 2.428.772.772 0 0 1 .266 1.042.741.741 0 0 1-.643.377M47.643 30.4a.741.741 0 0 1-.62-.339.774.774 0 0 1 .207-1.057 67.432 67.432 0 0 1 4.28-2.684.737.737 0 0 1 1.013.29.773.773 0 0 1-.284 1.039 65.469 65.469 0 0 0-4.184 2.624.736.736 0 0 1-.412.127m78.726 3.72a.736.736 0 0 1-.468-.168 66.532 66.532 0 0 0-3.93-3.006.774.774 0 0 1-.188-1.06.732.732 0 0 1 1.036-.193 68.254 68.254 0 0 1 4.016 3.072c.32.263.37.744.113 1.07a.738.738 0 0 1-.58.285m-86.551 2.51a.736.736 0 0 1-.552-.25.774.774 0 0 1 .052-1.076 68.763 68.763 0 0 1 3.843-3.3.732.732 0 0 1 1.045.133.771.771 0 0 1-.131 1.068 67.385 67.385 0 0 0-3.758 3.228.728.728 0 0 1-.5.196m93.787 4.427a.73.73 0 0 1-.547-.246 67.686 67.686 0 0 0-3.453-3.565.775.775 0 0 1-.034-1.077.73.73 0 0 1 1.052-.035 69.105 69.105 0 0 1 3.53 3.645.775.775 0 0 1-.044 1.078.732.732 0 0 1-.504.2M32.975 43.973a.732.732 0 0 1-.472-.173.776.776 0 0 1-.103-1.073 70.056 70.056 0 0 1 3.325-3.842.732.732 0 0 1 1.052-.024c.298.29.309.77.025 1.075a68.182 68.182 0 0 0-3.252 3.759.737.737 0 0 1-.575.278m106.787 5.037a.74.74 0 0 1-.617-.333 67.871 67.871 0 0 0-2.903-4.05.773.773 0 0 1 .121-1.068.733.733 0 0 1 1.046.123 70.265 70.265 0 0 1 2.968 4.14c.23.347.141.822-.198 1.057a.726.726 0 0 1-.417.131M27.268 52.264a.728.728 0 0 1-.382-.107.774.774 0 0 1-.256-1.046 69.784 69.784 0 0 1 2.732-4.3.735.735 0 0 1 1.038-.186.777.777 0 0 1 .18 1.063 67.812 67.812 0 0 0-2.673 4.206.74.74 0 0 1-.64.37m117.437 5.549a.744.744 0 0 1-.673-.433 68.774 68.774 0 0 0-2.284-4.446.77.77 0 0 1 .274-1.039.733.733 0 0 1 1.016.28 69.844 69.844 0 0 1 2.337 4.547.769.769 0 0 1-.35 1.016.727.727 0 0 1-.32.075M22.827 61.326a.741.741 0 0 1-.283-.058.768.768 0 0 1-.405-.993c.63-1.57 1.33-3.14 2.078-4.668a.738.738 0 0 1 1-.34c.367.19.515.647.33 1.024a66.685 66.685 0 0 0-2.03 4.563.747.747 0 0 1-.69.472m125.483 5.948a.746.746 0 0 1-.711-.539 67.857 67.857 0 0 0-1.613-4.746.767.767 0 0 1 .424-.987.739.739 0 0 1 .964.433 69.879 69.879 0 0 1 1.647 4.854.763.763 0 0 1-.493.951.688.688 0 0 1-.218.034M19.754 70.97a.78.78 0 0 1-.179-.021.764.764 0 0 1-.545-.923 69.792 69.792 0 0 1 1.377-4.936.742.742 0 0 1 .937-.488c.391.13.605.56.477.961a68.659 68.659 0 0 0-1.345 4.827.748.748 0 0 1-.722.58m130.74 6.2a.753.753 0 0 1-.737-.65 66.939 66.939 0 0 0-.9-4.933.762.762 0 0 1 .56-.913c.397-.092.8.165.892.575a70.14 70.14 0 0 1 .921 5.046.76.76 0 0 1-.737.874M18.118 80.974a.757.757 0 0 1-.742-.832c.152-1.695.368-3.407.643-5.089a.745.745 0 0 1 .857-.625.76.76 0 0 1 .61.877 70.023 70.023 0 0 0-.627 4.977.751.751 0 0 1-.74.692m133.06 8.809h-.029a.755.755 0 0 1-.716-.79 70.321 70.321 0 0 0-.136-7.486.757.757 0 0 1 .687-.816.75.75 0 0 1 .797.705 72.873 72.873 0 0 1 .14 7.654.753.753 0 0 1-.743.733M17.938 91.119a.753.753 0 0 1-.743-.72 73.247 73.247 0 0 1-.093-5.131c.008-.42.352-.731.757-.748.412.008.74.354.732.776a71.164 71.164 0 0 0 .091 5.019.754.754 0 0 1-.744.804m132.154 8.747a.8.8 0 0 1-.138-.012.762.762 0 0 1-.595-.889 70.17 70.17 0 0 0 .72-4.965.753.753 0 0 1 .821-.673.757.757 0 0 1 .657.841 70.696 70.696 0 0 1-.734 5.077.75.75 0 0 1-.73.621m-130.876 1.31a.748.748 0 0 1-.728-.606 71.21 71.21 0 0 1-.831-5.062.76.76 0 0 1 .642-.854c.402-.06.78.24.835.658.209 1.653.482 3.32.811 4.949a.761.761 0 0 1-.577.9.777.777 0 0 1-.152.016m128.335 8.496a.734.734 0 0 1-.244-.042.768.768 0 0 1-.46-.971 68.897 68.897 0 0 0 1.435-4.799.743.743 0 0 1 .91-.54.764.764 0 0 1 .528.932 70.415 70.415 0 0 1-1.466 4.908.746.746 0 0 1-.703.512m-125.607 1.256a.747.747 0 0 1-.699-.498 70.38 70.38 0 0 1-1.559-4.877.765.765 0 0 1 .51-.943.742.742 0 0 1 .921.523c.448 1.602.96 3.207 1.525 4.77a.767.767 0 0 1-.44.977.72.72 0 0 1-.258.048m121.67 8.044a.729.729 0 0 1-.344-.087.773.773 0 0 1-.314-1.03 68.552 68.552 0 0 0 2.114-4.524.743.743 0 0 1 .98-.397.77.77 0 0 1 .387 1.003 69.902 69.902 0 0 1-2.163 4.627.74.74 0 0 1-.66.408m-117.548 1.194a.74.74 0 0 1-.652-.396 69.836 69.836 0 0 1-2.255-4.589.77.77 0 0 1 .369-1.01.735.735 0 0 1 .985.377 68.258 68.258 0 0 0 2.206 4.488.772.772 0 0 1-.294 1.035.742.742 0 0 1-.36.095m112.306 7.41a.73.73 0 0 1-.439-.148.774.774 0 0 1-.16-1.065 67.864 67.864 0 0 0 2.746-4.156.74.74 0 0 1 1.026-.243.775.775 0 0 1 .238 1.05 70.345 70.345 0 0 1-2.81 4.25.74.74 0 0 1-.601.312m-106.889 1.092a.739.739 0 0 1-.591-.3 68.988 68.988 0 0 1-2.895-4.193.772.772 0 0 1 .217-1.054.732.732 0 0 1 1.03.223 67.314 67.314 0 0 0 2.83 4.1.772.772 0 0 1-.14 1.067.724.724 0 0 1-.45.157m100.459 6.627a.734.734 0 0 1-.524-.22.774.774 0 0 1-.005-1.077 68.123 68.123 0 0 0 3.317-3.696.733.733 0 0 1 1.049-.086c.312.274.35.754.083 1.074a68.78 68.78 0 0 1-3.392 3.779.732.732 0 0 1-.528.226m-93.879.962a.731.731 0 0 1-.519-.215 68.797 68.797 0 0 1-3.465-3.71.773.773 0 0 1 .062-1.074.73.73 0 0 1 1.05.063 67.757 67.757 0 0 0 3.39 3.628.775.775 0 0 1 .016 1.078.736.736 0 0 1-.534.23m86.404 5.706a.736.736 0 0 1-.596-.306.774.774 0 0 1 .15-1.067 67.849 67.849 0 0 0 3.815-3.155.73.73 0 0 1 1.05.074.773.773 0 0 1-.073 1.073 68.944 68.944 0 0 1-3.9 3.228.731.731 0 0 1-.446.153m-78.806.805a.733.733 0 0 1-.433-.143 68.469 68.469 0 0 1-3.96-3.146.775.775 0 0 1-.094-1.072.734.734 0 0 1 1.049-.096 66.555 66.555 0 0 0 3.873 3.076c.335.246.41.722.17 1.063a.74.74 0 0 1-.605.318m70.45 4.66a.742.742 0 0 1-.656-.402.772.772 0 0 1 .303-1.032 66.307 66.307 0 0 0 4.23-2.544.732.732 0 0 1 1.027.232.77.77 0 0 1-.227 1.052 67.318 67.318 0 0 1-4.325 2.602.723.723 0 0 1-.351.092m-61.997.63a.73.73 0 0 1-.34-.085 66.827 66.827 0 0 1-4.37-2.51.772.772 0 0 1-.247-1.048.733.733 0 0 1 1.024-.252 65.793 65.793 0 0 0 4.273 2.455c.366.191.51.65.322 1.025a.74.74 0 0 1-.662.414m52.936 3.505a.748.748 0 0 1-.702-.505.767.767 0 0 1 .45-.974 65.022 65.022 0 0 0 4.554-1.872.736.736 0 0 1 .983.385.768.768 0 0 1-.376 1.005 66.36 66.36 0 0 1-4.658 1.916.724.724 0 0 1-.251.045M63.238 152a.712.712 0 0 1-.237-.04 64.82 64.82 0 0 1-4.685-1.816.768.768 0 0 1-.396-.998.738.738 0 0 1 .975-.405 64.82 64.82 0 0 0 4.58 1.776c.39.133.6.565.468.965a.746.746 0 0 1-.705.518m34.26 2.263a.749.749 0 0 1-.73-.614.76.76 0 0 1 .586-.895 65.12 65.12 0 0 0 4.771-1.155.74.74 0 0 1 .917.53.764.764 0 0 1-.519.938c-1.602.454-3.243.85-4.88 1.18a.717.717 0 0 1-.145.016m-24.657.245a.723.723 0 0 1-.13-.012 65.806 65.806 0 0 1-4.902-1.08.763.763 0 0 1-.537-.927.743.743 0 0 1 .904-.55c1.576.411 3.189.768 4.794 1.058a.759.759 0 0 1 .603.883.749.749 0 0 1-.732.628m14.817.972a.75.75 0 0 1-.742-.728.754.754 0 0 1 .71-.795 64.875 64.875 0 0 0 4.884-.417.747.747 0 0 1 .828.665.756.756 0 0 1-.649.847 65.149 65.149 0 0 1-4.996.427h-.035m-4.958.05h-.02a66.923 66.923 0 0 1-5.003-.328.757.757 0 0 1-.666-.834c.04-.42.412-.729.816-.681a65.62 65.62 0 0 0 4.894.319c.41.012.734.362.723.783a.753.753 0 0 1-.744.74"/>
        <text fill="#B796BE" font-family="TeXGyreAdventor-BoldItalic, TeX Gyre Adventor" font-size="24" font-style="italic" font-weight="bold">
            <tspan x="26.344" y="99.11"></tspan>
        </text>
    </g>
</svg>
